<?xml version="1.0" encoding="UTF-8"?>
<!DOCTYPE svg PUBLIC "-//W3C//DTD SVG 1.1//EN" "http://www.w3.org/Graphics/SVG/1.1/DTD/svg11.dtd">
<!-- Creator: CorelDRAW -->
<svg xmlns="http://www.w3.org/2000/svg" xml:space="preserve" width="836.219mm" height="625.295mm" version="1.1" style="shape-rendering:geometricPrecision; text-rendering:geometricPrecision; image-rendering:optimizeQuality; fill-rule:evenodd; clip-rule:evenodd"
viewBox="0 0 76885.02 57491.9"
 xmlns:xlink="http://www.w3.org/1999/xlink"
 xmlns:xodm="http://www.corel.com/coreldraw/odm/2003">
 <defs>
  <style type="text/css">
   <![CDATA[
    .fil2 {fill:#82bec7}
    .fil1 {fill:white}
    .fil3 {fill:#1c565f;fill-rule:nonzero}
    .fil4 {fill:#82bec7;fill-rule:nonzero}
    .fil0 {fill:url(#id0)}
   ]]>
  </style>
  <linearGradient id="id0" gradientUnits="userSpaceOnUse" x1="38955.23" y1="19291.99" x2="38457" y2="46443.95">
   <stop offset="0" style="stop-opacity:1; stop-color:#82bec7"/>
   <stop offset="1" style="stop-opacity:1; stop-color:#1c565f"/>
  </linearGradient>
 </defs>
 <g id="Capa_x0020_1">
  <metadata id="CorelCorpID_0Corel-Layer"/>
  <g id="_2150040499856">
   <path class="fil0" d="M11164.33 21253.54c464.29,0 840.63,376.59 840.63,840.76 0,464.47 -376.34,840.7 -840.63,840.7 -464.35,0 -840.7,-376.22 -840.7,-840.7 0,-464.17 376.34,-840.76 840.7,-840.76zm-295.74 2802.47c748.05,0 1354.5,606.2 1354.5,1354.5 0,747.99 -606.45,1354.5 -1354.5,1354.5 -748.12,0 -1354.57,-606.52 -1354.57,-1354.5 0,-748.3 606.45,-1354.5 1354.57,-1354.5zm6461.01 -7348.53c412.7,0 747.3,334.6 747.3,747.31 0,412.76 -334.6,747.36 -747.3,747.36 -412.76,0 -747.36,-334.6 -747.36,-747.36 0,-412.71 334.6,-747.31 747.36,-747.31l0 0zm1408.98 -3658.84c993.14,0 1798.17,805.47 1798.17,1798.36 0,992.89 -805.03,1798.24 -1798.17,1798.24 -993.15,0 -1798.31,-805.35 -1798.31,-1798.24 0,-992.89 805.16,-1798.36 1798.31,-1798.36zm40797.77 2491c619.3,0 1121.39,501.97 1121.39,1121.08 0,619.06 -502.09,1120.96 -1121.39,1120.96 -618.68,0 -1120.77,-501.9 -1120.77,-1120.96 0,-619.11 502.09,-1121.08 1120.77,-1121.08l0 0zm6834.91 2070.78c1031.75,0 1868.57,836.5 1868.57,1868.26 0,1031.75 -836.82,1868.31 -1868.57,1868.31 -1031.75,0 -1867.94,-836.56 -1867.94,-1868.31 0,-1031.75 836.18,-1868.26 1867.94,-1868.26zm-30834 -10913.41c451.5,0 817.38,365.44 817.38,817.38 0,451.31 -365.88,816.75 -817.38,816.75 -451.51,0 -817.38,-365.44 -817.38,-816.75 0,-451.94 365.87,-817.38 817.38,-817.38zm-3207.22 622.43c984.42,0 1782.62,797.95 1782.62,1782.7 0,984.74 -798.2,1782.7 -1782.62,1782.7 -984.43,0 -1782.37,-797.95 -1782.37,-1782.7 0,-984.74 797.94,-1782.7 1782.37,-1782.7zm21415 8920.99c1737,0 3144.85,1408.04 3144.85,3144.85 0,170.87 -13.79,338.61 -39.49,502.09 772.25,-532.61 1708.1,-844.59 2717.29,-844.59 2359.37,0 4320.08,1703.47 4720.63,3947.37 105.93,-15.85 213.74,-24.01 324.06,-24.01 1203.51,0 2179.48,976.04 2179.48,2179.73 0,991.5 -661.93,1828.07 -1568.32,2092.4 376.72,452.13 603,1033.38 603,1667.48 0,281.57 -45.13,552.43 -127.24,806.36 232.55,-44.07 473.25,-67.14 718.96,-67.14 2124.32,0 3845.58,1721.7 3845.58,3845.64 0,1062.22 -430.63,2023.96 -1126.4,2720.04 287.08,218.95 472.63,565.02 472.63,954.22 0,623.75 -476.39,1136.25 -1084.41,1193.67 1158.37,993.83 1893.64,2468.37 1893.64,4115.11 0,1339.58 -487.04,2565.35 -1292.52,3511.16 2551.8,378.85 5134.95,799.58 7758.22,1261.73l-24275.53 0c-11507.52,-46.7 -22682.94,-55.09 -34331.06,0l-18278.43 0c2484.8,-471.25 4932.93,-895.85 7351.54,-1275.33 -524.97,-871.23 -827.03,-1892.33 -827.03,-2983.44 0,-2226.74 1256.79,-4159.56 3099.4,-5128.75 -188.74,-322.75 -296.93,-697.97 -296.93,-1098.95 0,-302.26 61.62,-590.29 172.95,-852.36 -929.71,-861.5 -1511.78,-2092.78 -1511.78,-3460.26 0,-2605.21 2112.16,-4717.49 4717.37,-4717.49 54.4,0 108.5,1.31 162.41,3.25 -14.55,-110.57 -22.25,-223.15 -22.25,-337.61 0,-892.35 456.39,-1677.95 1148.28,-2136.22 -710.58,-585.52 -1163.58,-1472.28 -1163.58,-2464.49 0,-1762.57 1428.91,-3191.68 3191.48,-3191.68 1229.33,0 2296.13,695.09 2829.31,1713.88 453.32,-835.19 1338.02,-1402.53 2355.11,-1402.53 26.45,0 52.9,0.69 79.17,1.31 -435.9,-476.14 -701.93,-1110.67 -701.93,-1807.2 0,-1478.93 1198.94,-2678.12 2677.8,-2678.12 295.67,0 580.13,48.26 846.09,136.65 871.41,-1986.41 2855.13,-3374.83 5163.6,-3374.83 1432.99,0 2741.1,535.31 3735.62,1416.62 611.41,-1069.36 1763.19,-1790.21 3083.35,-1790.21 1960.4,0 3549.78,1589.62 3549.78,3549.71 0,119.72 -6.21,238.81 -17.55,355.41 543.65,-528.42 1285.75,-853.73 2103.82,-853.73 699.6,0 1343.79,238.19 1855.97,637.48 654.53,-1580.24 2211.75,-2692.22 4029.17,-2692.22 2281.2,0 4153.03,1752.6 4342.77,3984.73 508.29,-352.83 1125.53,-559.75 1791.09,-559.75l0 0z"/>
   <path class="fil1" d="M59048.06 39216.48c-2695.98,1029.18 -4512.83,1324.98 -5496.33,1343.78 -604.89,12.04 -883.2,-54.78 -711.32,-651.95 365.26,-1269.2 1033.76,-2295.81 1924.48,-3134.88 986.06,-928.96 2245.36,-1628.3 3667.62,-2172.58 665.69,-254.62 989.76,-345.75 1352.68,252.68 550.98,909.2 781.66,1818.35 875.06,2864.72 83.99,938.74 -804.85,1190.09 -1612.2,1498.24l0 0zm-35345.52 -11060.91c-621.24,23 -560.57,-483.03 -353.65,-886.51 869.66,-1697.33 1845.94,-3316.21 3200.14,-4856.27 825.47,-938.67 1138.12,-860.19 2299.32,-1029.49 5291.6,-773.26 13896.16,-773.26 19188.02,0 1160.88,169.31 1473.92,90.82 2299.38,1029.49 1354.2,1540.06 2330.23,3158.94 3199.82,4856.27 206.92,403.49 267.91,909.52 -353.53,886.51 -11801.44,-442.09 -17678.18,-442.09 -29479.49,0l0 0zm-5866.21 11060.91c2696.04,1029.18 4513.02,1324.98 5496.63,1343.78 604.89,12.04 883.14,-54.78 711.32,-651.95 -365.44,-1269.2 -1033.76,-2295.81 -1924.48,-3134.88 -986.37,-928.96 -2245.48,-1628.3 -3667.94,-2172.58 -665.12,-254.62 -989.51,-345.75 -1352.19,252.68 -551.1,909.2 -782.03,1818.35 -875.55,2864.72 -83.93,938.74 805.04,1190.09 1612.2,1498.24l0 0zm20201.71 1287.38c-4139.74,-2.33 -8284.37,-111.57 -12434.52,-339.93 339.61,554.62 751.5,965.25 1235.47,1231.59 1808.58,995.14 6464.44,1506.63 11199.05,1533.91l0 -2425.57zm13245.84 -344.13c-4141.44,212.74 -8286.71,331.47 -12437.17,343.12l0 2426.57c4734.61,-27.27 9390.48,-538.76 11198.75,-1533.91 485.55,-266.97 898.12,-678.92 1238.43,-1235.79l0 0zm-12437.17 -339.93c4247.75,-15.92 8510.79,-136.58 12786.19,-340.93 135.89,-315.61 255.56,-663.62 358.73,-1044.42 174.2,-643.88 74.59,-1048.99 -638.04,-1144.65 -1890.64,-253.36 -7157.29,-383.11 -12506.87,-389.25l0 2919.25zm-13592.52 -335.41c4243.55,234.18 8505.58,339.61 12783.85,336.98l0 -2920.82c-5349.59,6.14 -10616.16,135.89 -12506.87,389.25 -712.89,95.66 -812.24,500.77 -637.98,1144.65 103.74,383.05 224.09,733.01 360.99,1049.93l0 0zm706.43 -17767.69c-1725.21,2021.08 -3847.46,4602.33 -4848.12,6690.23l-184.16 -6.15c0,0 -10.4,-596.8 -31.15,-1790.46 -41.05,-414.83 -269.41,-622.43 -685.05,-622.81 0,0 -363.25,20.81 -1089.81,62.3 -989.13,100.55 -1565.24,542.02 -1728.09,1323.35 -177.27,624.76 22.5,1154.11 599.37,1588.07 659.86,262.45 1636.33,376.9 2341.32,389.25 -461.15,617.55 -823.83,1229.96 -1088.04,1836.86 -4281.28,2541.97 -5446.49,6593.21 -3892.28,12143.62l299.81 3869.58 45575.63 0 300.25 -3869.58c1553.9,-5550.42 388.63,-9601.66 -3892.59,-12143.62 -263.9,-606.9 -626.83,-1219.31 -1088.17,-1836.86 705.18,-12.35 1681.78,-126.8 2341.2,-389.25 577.31,-433.96 777.26,-963.31 599.87,-1588.07 -162.97,-781.34 -739.02,-1222.8 -1728.15,-1323.35 -726.49,-41.49 -1090.06,-62.3 -1090.06,-62.3 -415.59,0.38 -643.74,207.98 -685.12,622.81 -20.69,1193.67 -31.34,1790.46 -31.34,1790.46l-183.66 6.15c-1000.92,-2087.9 -3122.85,-4669.16 -4848.12,-6690.23 -701.29,-821.58 -1553.02,-1178.68 -2616.87,-1431.04 -3264.07,-773.57 -16465.71,-773.57 -19729.71,0 -1063.92,252.36 -1915.71,609.46 -2616.94,1431.04l0 0z"/>
   <polygon class="fil2" points="25843.22,0 26485.09,4795.85 31247.33,5403.87 26450.74,6045.74 25843.22,10807.73 25201.29,6011.26 20439.29,5403.87 25235.7,4761.99 "/>
   <polygon class="fil1" points="51859.62,18589.27 52074.62,20195.2 53669.2,20398.55 52062.97,20613.61 51859.62,22208.13 51644.87,20602.27 50050.35,20398.55 51656.22,20183.79 "/>
   <polygon class="fil1" points="53929.65,20818.27 54067.17,21846.13 55087.58,21976.52 54059.72,22114.1 53929.65,23134.51 53792.12,22106.58 52771.34,21976.52 53799.27,21838.99 "/>
   <polygon class="fil2" points="70527.13,24703.46 70878.15,27330.04 73486.37,27662.82 70859.34,28014.16 70527.13,30621.94 70175.47,27995.29 67567.88,27662.82 70194.28,27311.24 "/>
   <polygon class="fil2" points="72475.3,22314.18 72660.84,23700.85 74037.35,23876.3 72650.81,24061.84 72475.3,25438.71 72289.76,24052.13 70913.24,23876.3 72299.79,23690.76 "/>
   <path class="fil1" d="M35132.45 12616.12c1486.52,-546.59 3134.26,215.63 3680.85,1701.83 424.23,1152.73 60.3,2403.32 -817.7,3161.22 753.76,-751.19 1046.68,-1900.04 655.16,-2964.39 -535.81,-1458 -2152.39,-2205.17 -3610.08,-1669.24 -830.36,305.26 -1429.8,961.56 -1693.19,1738.82 229.35,-877.56 869.66,-1631.63 1784.95,-1968.24l0 0z"/>
   <path class="fil1" d="M45166.81 14428.28c1455.05,-1357.08 3734.94,-1277.47 5092.08,177.4 1052.88,1128.91 1240.99,2754.08 592.92,4059.83 507.29,-1237.42 286.77,-2710.59 -685.38,-3752.69 -1330.81,-1427.28 -3566.95,-1505.01 -4994.11,-173.63 -812.86,757.84 -1187.83,1809.52 -1114.18,2838.08 -161.53,-1127.47 212.44,-2312.8 1108.67,-3148.99l0 0z"/>
   <path class="fil1" d="M66920.37 30576.56c1705.59,420.97 2747.38,2145.31 2326.15,3851.09 -326.57,1323.35 -1437.31,2246.8 -2715.41,2397.68 1159.63,-221.9 2142.49,-1096.01 2443.99,-2317.88 412.45,-1673.06 -609.27,-3363.92 -2282.27,-3776.82 -952.15,-235.18 -1911.2,-4.89 -2635.8,546.22 755.33,-663.62 1812.78,-959.49 2863.35,-700.29l0 0z"/>
   <path class="fil1" d="M24924.98 16086.23c847.22,-2323.02 3416.76,-3519 5739.47,-2672.16 1802.11,656.91 2925.7,2351.22 2943.57,4162.19 -135.27,-1656.14 -1209.53,-3163.65 -2872.86,-3769.79 -2277.95,-830.55 -4798.23,342.24 -5628.9,2620.63 -473.19,1297.46 -295.92,2673.34 364.94,3770.98 -814.06,-1157.68 -1067.68,-2681.44 -546.22,-4111.85l0 0z"/>
   <path class="fil1" d="M13546.9 22819.85c-33.47,-1388.85 1065.42,-2542.28 2454.53,-2575.69 1077.7,-25.95 2013.3,629.58 2394.35,1573.46 -410.64,-838.44 -1281.99,-1406.72 -2276.82,-1382.78 -1362.41,32.79 -2440.18,1163.83 -2407.32,2526.48 18.67,775.83 393.77,1459.26 964.81,1898.09 -663.5,-438.84 -1108.86,-1183.88 -1129.55,-2039.57l0 0z"/>
   <path class="fil1" d="M19268.06 22234.39c-22.81,-946.76 726.18,-1732.73 1673,-1755.74 734.58,-17.49 1372.25,429.43 1631.94,1072.62 -279.88,-571.48 -873.8,-958.8 -1551.83,-942.56 -928.64,22.38 -1663.28,793.37 -1640.84,1722.01 12.73,529.04 268.41,994.78 657.61,1293.9 -452.26,-299.12 -755.83,-807.04 -769.87,-1390.23l0 0z"/>
   <path class="fil1" d="M8946.94 33669.94c-740.85,-1919.53 214.69,-4076.18 2134.21,-4817.03 1489.21,-574.74 3120.97,-128.44 4123.76,997.09 -991.51,-963.99 -2490,-1320.78 -3864.63,-790.11 -1882.68,726.55 -2819.84,2841.65 -2093.23,4724.57 413.83,1072 1278.23,1837.48 2293.37,2163.43 -1144.08,-279.56 -2137.23,-1096.01 -2593.49,-2277.95z"/>
   <path class="fil1" d="M58732.14 19818.29c2058.5,-530.98 4158.36,707.07 4689.29,2765.81 412.45,1597.09 -241.33,3218.55 -1515.66,4113.47 1107.6,-902.68 1652.94,-2397.97 1272.45,-3872.14 -520.9,-2019.19 -2580.65,-3233.55 -4599.65,-2712.65 -1149.6,296.8 -2038.45,1092.43 -2494.77,2095.35 424.36,-1140.75 1380.9,-2062.57 2648.34,-2389.84l0 0z"/>
   <path class="fil1" d="M8310.27 45386.07c-1419.21,-1804.38 -1106.79,-4417.75 697.78,-5837.13 1400.02,-1100.9 3286.7,-1159.25 4724.95,-287.71 -1373.31,-703.24 -3088.43,-592.6 -4380.76,423.92 -1769.84,1391.81 -2076.23,3954.9 -684.37,5724.61 792.75,1008.06 1965.42,1540.99 3155.06,1556.28 -1311.94,76.53 -2638.68,-468.74 -3512.66,-1579.98l0 0z"/>
   <path class="fil1" d="M68553.88 44915.77c1334.51,-1635.46 1090.67,-4043.16 -544.71,-5377.86 -1268.7,-1035.39 -3002.5,-1120.32 -4338.89,-343.19 1274.34,-623.44 2848.93,-493.37 4020.47,462.54 1603.41,1308.81 1842.86,3670.44 534.05,5274.36 -745.3,913.41 -1832.84,1384.04 -2926.65,1378.21 1204.76,92.14 2433.96,-386.94 3255.73,-1394.06l0 0z"/>
   <polygon class="fil2" points="41962.79,7829.06 42296.89,10325.7 44775.61,10641.62 42279.02,10975.72 41962.79,13454.19 41628.69,10958.17 39149.97,10641.62 41646.56,10307.53 "/>
   <path class="fil3" d="M28411.77 52307.36l494 0c501.14,0 844.94,-64.82 1035,-195.89 187.79,-131.07 282.83,-347.39 282.83,-651.34 0,-178.39 -47.33,-334.03 -140.42,-467.05 -93.08,-133.01 -218.63,-228.04 -376.22,-284.77 -155.7,-59.05 -444.41,-87.63 -864.13,-87.63l-431.07 0 0 1686.67zm-1549.45 -3202.02l1653.88 0c904.01,0 1549.81,79.8 1933.56,240.96 385.31,161.53 693.08,431.44 926.64,805.41 233.56,374.34 351.28,816.75 351.28,1329.56 0,537.44 -129.07,987.31 -385.32,1348.36 -258.5,362.62 -645.81,636.04 -1164.45,820.27l1931.56 3636.72 -1701.58 0 -1838.47 -3463.85 -157.65 0 0 3463.85 -1549.45 0 0 -8181.28zm-5851.49 2174.46l-1109.1 2816.39 2212.5 0 -1103.41 -2816.39zm-786.22 -2174.46l1568.69 0 3148.86 8181.28 -1620.09 0 -638.04 -1686.36 -3353.89 0 -653.28 1686.36 -1619.91 0 3167.73 -8181.28 -0.06 0zm-4474.47 1435.56l-1092 1037.01c-742.6,-782.34 -1576.28,-1173.54 -2504.92,-1173.54 -782.47,0 -1443.33,267.59 -1978.88,801.52 -537.45,533.56 -805.22,1190.66 -805.22,1973.06 0,544.89 119.6,1029.13 357.04,1450.79 237.37,423.61 573.48,755.77 1006.49,997.09 434.89,241.32 917.29,360.68 1449.03,360.68 452,0 866.03,-83.31 1240.18,-252.36 375.97,-168.94 788.1,-476.76 1236.28,-921.13l1057.83 1105.35c-603.94,590.72 -1175.61,1000.73 -1713.05,1228.71 -537.44,229.67 -1152.73,343.81 -1842.12,343.81 -1272.45,0 -2314.99,-402.86 -3125.92,-1209.84 -810.92,-805.41 -1215.48,-1840.42 -1215.48,-3099.21 0,-816.75 184.23,-1540.43 554.55,-2174.52 368.46,-634.41 896.37,-1143.39 1585.75,-1529.02 687.5,-385.37 1428.15,-579 2223.85,-579 674.21,0 1323.73,142.41 1950.43,427.18 624.76,284.83 1164.14,689.26 1616.15,1213.42l0 0z"/>
   <path class="fil4" d="M60395.55 49105.34l1583.99 0 0 3087.87 2734.85 0 0 -3087.87 1572.07 0 0 8181.28 -1572.07 0 0 -3589.4 -2734.85 0 0 3589.4 -1583.99 0 0 -8181.28zm-2225.86 1112.87l-1154.61 1017.78c-404.93,-562.08 -816.75,-842.96 -1236.1,-842.96 -205.6,0 -372.34,54.79 -501.46,163.16 -131.01,110.26 -195.57,233.56 -195.57,370.4 0,136.89 45.14,267.91 138.53,389.25 127.24,163.48 508.98,512.81 1145.21,1050.25 594.22,497.57 955.28,810.86 1082.53,939.99 315.29,319.17 539.07,623.07 671.95,913.72 131.01,292.23 197.46,609.47 197.46,953.28 0,672.39 -231.93,1224.75 -697.03,1663.6 -463.22,436.58 -1068.73,655.22 -1817.17,655.22 -582.95,0 -1090.06,-142.36 -1523.19,-427.5 -433.14,-286.71 -805.03,-734.95 -1112.87,-1346.41l1312.2 -789.81c395.52,721.35 848.72,1082.41 1362.09,1082.41 267.03,0 493.31,-77.86 675.72,-233.56 182.41,-155.71 273.29,-336.36 273.29,-539.39 0,-184.28 -67.7,-370.45 -206.85,-556.62 -136.65,-184.23 -440.66,-469 -909.52,-850.79 -892.61,-725.31 -1468.03,-1285.75 -1728.16,-1680.52 -260.45,-395.03 -391.45,-788.18 -391.45,-1181.26 0,-567.97 216.56,-1054.2 647.83,-1458.69 433.14,-406.44 966.56,-609.47 1600.91,-609.47 408.69,0 797.32,94.71 1165.89,282.83 370.46,190.11 769.12,533.61 1200.37,1035.07l0 0zm-10044.76 1061.59l-1108.98 2816.39 2212.45 0 -1103.47 -2816.39zm-786.23 -2174.46l1568.94 0 3148.49 8181.28 -1619.84 0 -637.99 -1686.36 -3353.89 0 -653.21 1686.36 -1620.16 0 3167.66 -8181.28 0 0zm-13983.42 0l1525.12 0 1186.84 5222.46 1460.57 -5222.46 1289.38 0 1489.08 5222.46 1184.89 -5222.46 1527.07 0 -1857.59 8181.28 -1488.78 0 -1507.95 -5289.04 -1479.37 5289.04 -1468.09 0 -1861.17 -8181.28 0 0z"/>
  </g>
 </g>
</svg>
